<svg id="Capa_1" enable-background="new 0 0 512 512" height="512" viewBox="0 0 512 512" width="512" xmlns="http://www.w3.org/2000/svg"><g><path d="m436 451c8.284 0 15-6.716 15-15v-345h46c8.284 0 15-6.716 15-15s-6.716-15-15-15h-46v-46c0-8.284-6.716-15-15-15s-15 6.716-15 15v46h-345c-8.284 0-15 6.716-15 15v345h-46c-8.284 0-15 6.716-15 15s6.716 15 15 15h46v46c0 8.284 6.716 15 15 15s15-6.716 15-15v-46zm-345-59.149 141.287-153.543 163.833 182.692h-305.12zm330 11.957-66.672-74.346 66.672-74.29zm0-312.808v119.256l-86.819 96.74-90.502-100.92c-5.609-6.627-16.669-6.707-22.373-.138l-130.306 141.609v-256.547z"/><path d="m15 100c8.284 0 15-6.716 15-15v-55h55c8.284 0 15-6.716 15-15s-6.716-15-15-15h-70c-8.284 0-15 6.716-15 15v70c0 8.284 6.716 15 15 15z"/><path d="m497 412c-8.284 0-15 6.716-15 15v55h-55c-8.284 0-15 6.716-15 15s6.716 15 15 15h70c8.284 0 15-6.716 15-15v-70c0-8.284-6.716-15-15-15z"/><path d="m332 221c26.467 0 48-21.533 48-48s-21.533-48-48-48-48 21.533-48 48 21.533 48 48 48zm0-66c9.925 0 18 8.075 18 18s-8.075 18-18 18-18-8.075-18-18 8.075-18 18-18z"/></g></svg>