<svg id="Edit" viewBox="0 0 32 32" xmlns="http://www.w3.org/2000/svg"><path d="m27.1 7.16-2.26-2.26c-1.2-1.2-3.15-1.2-4.35 0l-3.79 3.8s0 0 0 0l-11.19 11.18c-.98.98-1.51 2.27-1.51 3.65v3.47c0 .55.45 1 1 1h3.47c1.38 0 2.67-.54 3.65-1.51l11.19-11.18s0 0 0 0l3.79-3.8c.58-.58.9-1.35.9-2.17s-.32-1.59-.9-2.17zm-16.4 17.91c-.6.6-1.39.93-2.23.93h-2.47v-2.47c0-.84.33-1.64.93-2.23l10.48-10.47 3.78 3.78-10.48 10.48zm14.99-14.98s0 0 0 0l-3.08 3.09-3.78-3.78 3.08-3.09c.42-.42 1.1-.42 1.52 0l2.26 2.26c.2.2.31.47.31.76s-.11.55-.31.76z" fill="white"/><path d="m26 26h-10c-.55 0-1 .45-1 1s.45 1 1 1h10c.55 0 1-.45 1-1s-.45-1-1-1z" fill="white"/></svg>