<svg clip-rule="evenodd" fill-rule="evenodd" stroke-linejoin="round" stroke-miterlimit="2" viewBox="0 0 32 32" xmlns="http://www.w3.org/2000/svg"><g id="Clone"/><g id="CloneSimple"/><g id="CopyFile"/><g id="CopyFileSimple"/><g id="Clipboard"/><g id="ClipboardText"/><g id="Paste"/><g id="FloppyDisk"/><g id="FloppyDiskBack"/><g id="NoteBlank"/><g id="Note"/><g id="NotePencil"/><g id="File"/><g id="Files"><path d="m20 5v3c0 1.657 1.343 3 3 3h2c.552 0 1-.448 1-1s-.448-1-1-1c0 0-.608 0-2 0-.552 0-1-.448-1-1v-3c0-.552-.448-1-1-1s-1 .448-1 1z"/><path d="m10 8v-2c0-.796.316-1.559.879-2.121.562-.563 1.325-.879 2.121-.879h7.586c.53 0 1.039.211 1.414.586l4.414 4.414c.375.375.586.884.586 1.414v12.586c0 .796-.316 1.559-.879 2.121-.562.563-1.325.879-2.121.879h-2v-2h2c.265 0 .52-.105.707-.293.188-.187.293-.442.293-.707v-12.586s-4.414-4.414-4.414-4.414h-7.586c-.265 0-.52.105-.707.293-.188.187-.293.442-.293.707v2z"/><path d="m15 9v3c0 1.657 1.343 3 3 3h3c.552 0 1-.448 1-1s-.448-1-1-1h-3c-.552 0-1-.448-1-1v-3c0-.552-.448-1-1-1s-1 .448-1 1z"/><path d="m20 29c1.657 0 3-1.343 3-3v-12c0-.265-.105-.52-.293-.707l-6-6c-.187-.188-.442-.293-.707-.293 0 0-5.082 0-8 0-.796 0-1.559.316-2.121.879-.563.562-.879 1.325-.879 2.121v16c0 .796.316 1.559.879 2.121.562.563 1.325.879 2.121.879zm0-2h-12c-.265 0-.52-.105-.707-.293-.188-.187-.293-.442-.293-.707v-16c0-.265.105-.52.293-.707.187-.188.442-.293.707-.293h7.586s5.414 5.414 5.414 5.414v11.586c0 .552-.448 1-1 1z"/><path d="m11 20h6c.552 0 1-.448 1-1s-.448-1-1-1h-6c-.552 0-1 .448-1 1s.448 1 1 1z"/><path d="m11 24h6c.552 0 1-.448 1-1s-.448-1-1-1h-6c-.552 0-1 .448-1 1s.448 1 1 1z"/></g><g id="FileImport"/><g id="FileExport"/><g id="FileArrowUp"/><g id="FileArrowDown"/><g id="FilePlus"/><g id="FileMinus"/><g id="FileDotted"/><g id="FileCode"/><g id="FileX"/><g id="FileSearch"/><g id="FileExclamation"/></svg>