<svg id="Layer_1" enable-background="new 0 0 30 30" height="512" viewBox="0 0 30 30" width="512" xmlns="http://www.w3.org/2000/svg"><g><path d="m16.998 24.602c.416.002.754-.334.754-.75v-5.332l1.523 1.215c.768.607 1.701-.557.935-1.173 0 0-2.74-2.186-2.74-2.186-.273-.21-.665-.206-.938.001l-2.74 2.186c-.763.613.164 1.782.935 1.173 0 0 1.523-1.215 1.523-1.215v5.329c-.001.414.334.751.748.752z"/><path d="m25.002 6.691h-7.653c-1.105.003-2.136-.559-2.733-1.489l-1.02-1.586c-.871-1.362-2.377-2.185-3.994-2.182h-4.6c-2.622.003-4.747 2.128-4.75 4.75v14.636c.01.978 1.492.984 1.5 0v-14.636c.002-1.794 1.456-3.248 3.25-3.25h4.6c1.106-.002 2.136.56 2.733 1.491l1.02 1.587c.872 1.361 2.378 2.182 3.994 2.179h7.653c1.794.002 3.248 1.456 3.25 3.25v11.379c-.003 2.346-1.904 4.247-4.25 4.25h-18-.634c-.803.005-1.412-.793-1.2-1.566l2.437-9.33c.373-1.432 1.667-2.432 3.147-2.432h16.25c.973-.001.987-1.497 0-1.5h-16.25c-2.162-.002-4.053 1.457-4.6 3.549l-2.437 9.33c-.471 1.704.879 3.457 2.644 3.445h18.639c3.174-.004 5.746-2.576 5.75-5.75v-11.375c-.003-2.62-2.126-4.745-4.746-4.75z"/></g></svg>