<svg xmlns="http://www.w3.org/2000/svg" version="1.1" xmlns:xlink="http://www.w3.org/1999/xlink" width="512" height="512" x="0" y="0" viewBox="0 0 1024 1024" style="enable-background:new 0 0 512 512" xml:space="preserve" class=""><g transform="matrix(1.8369701987210297e-16,-1,-1,-1.8369701987210297e-16,1024.3749046325681,1024.3749046325686)"><path d="M551.7 74.5c1-21.6-19.1-40-40-40-25.9 0-51.5 2.5-77.1 6.4-48.2 7.3-94.8 23.1-138.3 44.8-42.3 21.1-81.5 49.3-115.6 81.9-34 32.6-63.6 70.8-86.5 112-23.3 42-40.8 87.9-50.3 135C34 463.7 31 514.2 36.8 564c3 25.9 7.4 51.6 14.4 76.7 6.9 24.8 16.2 48.9 26.8 72.3 19.5 43.2 46.4 83 77.9 118.5 31.3 35.3 68.5 65.9 108.8 90.3 40.9 24.8 86.2 43.6 132.7 54.9 48.3 11.8 99.1 16.3 148.7 12.5 48.9-3.7 97.2-14.1 142.6-32.7 23.7-9.7 46.7-20.5 68.6-33.7 21.5-12.9 41.8-27.8 61.1-43.7 36.5-30 68-66.2 94-105.6 26.4-40 46.6-84.8 59.6-130.9 13.5-47.7 19.6-98.2 17.6-147.7-1.9-49.1-10.9-98.3-27.9-144.4-16.5-44.9-38.8-87.2-67.9-125.2-15.3-19.9-31.3-39-49.4-56.4-18.1-17.5-37.9-33.5-58.4-48.1-38.8-27.6-82.5-48.9-127.8-63.6-47-15.2-96.9-22.7-146.2-22.8-22.4 0-39 18.4-40 40s19.1 40 40 40c19.5 0 39 1.3 58.3 3.8-3.5-.4-7.1-.9-10.6-1.4 38.4 5.1 75.9 15.3 111.6 30.3-3.2-1.3-6.4-2.7-9.6-4 34.8 14.8 67.6 33.9 97.6 57l-8.1-6.3c29.7 23 56.4 49.7 79.4 79.4l-6.3-8.1c23.1 30 42.3 62.8 57 97.6-1.3-3.2-2.7-6.4-4-9.6 15 35.7 25.1 73.2 30.3 111.6-.4-3.5-.9-7.1-1.4-10.6 5.1 38.7 5.1 77.9 0 116.6.4-3.5.9-7.1 1.4-10.6-5.1 38.4-15.3 75.9-30.3 111.6 1.3-3.2 2.7-6.4 4-9.6-14.8 34.8-33.9 67.6-57 97.6l6.3-8.1c-23 29.7-49.7 56.4-79.4 79.4l8.1-6.3c-30 23.1-62.8 42.3-97.6 57 3.2-1.3 6.4-2.7 9.6-4-35.7 15-73.2 25.1-111.6 30.3 3.5-.4 7.1-.9 10.6-1.4-38.7 5.1-77.9 5.1-116.6 0 3.5.4 7.1.9 10.6 1.4-38.4-5.1-75.9-15.3-111.6-30.3 3.2 1.3 6.4 2.7 9.6 4-34.8-14.8-67.6-33.9-97.6-57l8.1 6.3c-29.7-23-56.4-49.7-79.4-79.4l6.3 8.1c-23.1-30-42.3-62.8-57-97.6 1.3 3.2 2.7 6.4 4 9.6-15-35.7-25.1-73.2-30.3-111.6.4 3.5.9 7.1 1.4 10.6-5.1-38.7-5.1-77.9 0-116.6-.4 3.5-.9 7.1-1.4 10.6 5.1-38.4 15.3-75.9 30.3-111.6-1.3 3.2-2.7 6.4-4 9.6 14.8-34.8 33.9-67.6 57-97.6l-6.3 8.1c23-29.7 49.7-56.4 79.4-79.4l-8.1 6.3c30-23.1 62.8-42.3 97.6-57-3.2 1.3-6.4 2.7-9.6 4 35.7-15 73.2-25.1 111.6-30.3-3.5.4-7.1.9-10.6 1.4 19.3-2.5 38.8-3.8 58.3-3.8 22.4 0 39-18.3 39.7-39.9z" fill="#000000" opacity="1" data-original="#000000" class=""></path><path d="M602.9 344.5c15.8-15.8 14.7-40.6-.2-56.5-14.6-15.9-41.8-14.8-56.6 0l-1.3 1.3c-25.8 25.4-51.1 51.1-76.7 76.7L376 458.1c-2.8 2.8-5.7 5.6-8.5 8.5-20.3 20.7-24.3 50.2-11.7 76 5.8 11.9 18 21.9 27.3 31.2l97.9 97.9 65.2 65.2c15.8 15.8 40.6 14.7 56.6 0 15.9-14.6 14.8-41.8 0-56.6L580.5 658l-97.1-97.1-42.6-42.6c-6.3-6.4-13.3-12.5-19.1-19.4l6.3 8.1c-1.4-1.9-2.6-3.9-3.5-6.1 1.3 3.2 2.7 6.4 4 9.6-.6-1.7-1.1-3.5-1.4-5.3.4 3.5.9 7.1 1.4 10.6-.3-2.3-.3-4.5 0-6.8-.4 3.5-.9 7.1-1.4 10.6.3-1.8.8-3.5 1.4-5.3-1.3 3.2-2.7 6.4-4 9.6 1-2.2 2.1-4.2 3.5-6.1l-6.3 8.1c7-8.4 15.6-15.8 23.3-23.5l96.8-96.8 61.1-61.1z" fill="#000000" opacity="1" data-original="#000000" class=""></path></g></svg>